<mxfile host="app.diagrams.net" modified="2023-11-06T02:06:48.468Z" agent="Mozilla/5.0 (Windows NT 10.0; Win64; x64) AppleWebKit/537.36 (KHTML, like Gecko) Chrome/119.0.0.0 Safari/537.36" etag="2REX06PRWbmWh2yG-U-t" version="22.0.8" type="github">
  <diagram name="第 1 页" id="DUyoh4fAe6IX5VGpkgK0">
    <mxGraphModel dx="1509" dy="832" grid="1" gridSize="10" guides="1" tooltips="1" connect="1" arrows="1" fold="1" page="1" pageScale="1" pageWidth="1169" pageHeight="827" math="0" shadow="0">
      <root>
        <mxCell id="0" />
        <mxCell id="1" parent="0" />
        <mxCell id="oCfir9i1Kfj-CyN_nqJA-1" value="" style="shape=image;verticalLabelPosition=bottom;labelBackgroundColor=default;verticalAlign=top;aspect=fixed;imageAspect=0;image=data:image/png,iVBORw0KGgoAAAANSUhEUgAAA4UAAAJ1CAIAAADhV8JaAAAABGdBTUEAALGPC/xhBQAAAAlwSFlzAAAOxAAADsQBlSsOGwAAXlJJREFUeF7t3d1vJNd94P2+0M2D55rA3i74J8z+Dboz4CHCPNlcUWjAMR4gChZYY5g1AuzODGhrwYbWYIRg4JVhYqYZiy+hjWAiMlkmNCgOFZpLU+72A8lx7IUHnB72amNYgQArCIbPeauqc05VvxT7dHVV8fvDB4thdXV3NWVgvzlVxW78n1//MwAAADArjWuGYRiGYRiGmd3QowzDMAzDMMwshx5lGIZhGIZhZjn0KMMwDMMwDDPLoUcZhmEYhmGYWQ49yjAMwzAMw8xy6FGGYRiGYRhmlkOPMgzDMAzDMLMcepRhGIZhGIaZ5dCjDMMwDMMwzCyHHmUYhmEYhmFmOfQowzAMwzAMM8uhRxmGYRiGYZhZDj3KMAzDMAzDzHLoUYZhGIZhGGaWQ48yDMMwDDOb+fkvLw8/7H7w7Mc1ID6I+DjmgzE5hx5lGIZhGGYGc/Q//+G//tWv/t2j3/6b/3ZdA+KDiI8jPpT5eEyeoUcZhmEYhil6fv7LS1FvXtLVgPhQrJLeYOhRhmEYhmGKnsMPu7VZGbWJDyU+mvmQzNhDjzIMwzAMU/R88OzHXsnVhvho5kMyYw89yjAMwzBM0UOPMvbQowzDMAzDFD30KGMPPcowDMMwTNFDjzL20KMMwzAMwxQ99Gio+cu//MtPPvnE/HDj6X2w/t2/+9VvzU+j57e/+rvvrn/QMz9NPvQowzAMwzBFDz06znz66afHx8fmh6wRj37lK1/54z/+Y1GlZtON5l/+19NvfuUr//FP/3qsJP3tr/76T//jV77yzaf/61/MlomHHmUYhmEYpuihR8cZUZk6N83PqRHBKnYIkqT/+6ONsZI0itGNj/632RJiytqjX3wWzxf/arYxDMMwDFOPoUfHGZGbq6urQ5JUB6ueIpJ0OjEqZgo9+vmnv/jJ6emPjI9++elnn5tHxp9P9752J5p3f2I2MgzDMAxTj6FHx5xBSSq2iy26ROOZbpJOLUbFhOzRz37+/tt/+CVTke58af1js9N4Q48yDMMwTI1n8h49EsH0T/7GMf3n5/IY2qntQYTtUTE/+9nPvCS1l0W9EftMeHtTdpJOM0bFBOvRy7+5n52ier79kdlvvKFHGYZhGKbGM3mP/kyE2k+v/80Pr39jXjJrBgTrJC07UvAeFYm5sbERJ6m+h2nIfPe73zXPvOn4STrlGBUTqEc/efyGqUc1X37j/rceP15//Phb97+6pDKVHmUYhmEYJppJe/Sn8kXkAqfq0aMfpnb4b9ftf0qiU8Rr3sl8zXGE7dH4jiU7STPXR0WGip2H348//pgkbT39x9/849PWdGNUTJge/bj9+yYe79z5/T87/cxsNvPF1UffP/6F+WG8oUcZhmEYpsYzYY8mrTlej9qmujgqBF8fjRdEhySp2GL2Djc6SdX8p/WzKcaomCA9+unBn5h2FJMzH60b6a3bnjJ7NNr1C/PzgIlfcdwb8/91wAvH24fdj2Ud/4jjYhiGYRjGzIQ9+rO4QfP2qFpYvfHa5ziC96iYkUka4E/ip+e3v3raUq/+4Pv/aF9LOoUJ0qOfffAN045i3twabyn009P3vvGmd8np63/wnn6y16Nf/PL9t//gdfOz3O3tDy7Vfs588Yu/fffrv5vsdufOl9781vu/cFZrP3rXPHTnzr33P73+7OMf3P9q8owvfe17H6uq/Ozj7339d6w3/GrLe8PPfvG3j9/6D9Yuar50792sA2MYhmEYxplJelTfjXSzHjWLo8OvOp3sVqdp9KiYIUkq/l+zU8CJrhld3143J+6nmaRhztdf/uBNU2RyRL15FejP5Q/fcq43TeZdfZ2p3aPvtN+zkjGapXd1OUbz2emfDnjJL98/SBrR7tH33v92+imvv/XDy48ytt954zvWG169nxyfN69//X2SlGEYhmGGziQ9qi8GtXt04Lg96oRsFpmw19e/ee5vz2VKPSomM0lDXTDqjHsD07A/AhVoAt3P9PlH7y6ZHovmS29+6/sfXWWcw/7iJ+/auff677751p89frz+9n1551NGj8r5stznHXc99a0fJs17+RdxEIsa/v4HPzo9/dv37keH9Po3Poh2tXpUzuu/85/efvxnb735ZfNzPK//wf131t92V1vfil9F9+iXlu6//YMD/WdWD753P/5Qr//pKafuGYZhGGbI3LhHdVOKyVwfPfptUpP++qgu199e/+d4i02dxxczpFbHNKUe/eSTT/TtSukkNXuEmqy76aedpIF6VMzlwf1U1ak69NZKL7//h+Yx8ejX/8J58LOf/+JT9Q+nR5fe/Sja6dO/fSspxPie/V9/EG9949sfJS34yePoNqs3v/8rvcnu0de/vhetZH56YL3undf/JF7ivHz/ntkoNr8b/Y/1+tOPTz9xPpWYj9fjm7reyffXBBiGYRjmls2Ne1ReOfrTgefo7R71yDP1YjJ7VP//74NSNadp9Ki+y16k59STdPCfdppqkobrUTGf/eL9b/mXhMqxz5gnjXjn9W8NXEe0e/Rre7pR1Xxx+rbZrC8AlfPZD98yW+587f0rtclMUp9f/xu9r9Wjr5u1WDVfnH7LbL5z5/cfW9cEe1eyZs/nn3326S8++t59s59/GAzDMAzDOHPDHv3h9c9Ebg6+ZnRQj+oT8UfPVXTGq0tDR/5x09TrjCN4j4oGjbtT37c0rSQd9XdGp5ekQXtUz69/8cH37JuE1Pzh93WRfvo3Xzdb7tx5+8OBp7UHV6B9Aajp0Y+/E7/Zl974f7/61cQbcRxHUZvxdD0ffdts9mvyJ8kznCP57PKDH7x933oLa+hRhmEYhhk2N14flaIe1ZU5co5+Lvdv63P9g9dHQ31dU/Ae9WJUT/gkHRWjeqaUpFPoUT1ffPrBn9lRahYdx1puzNmjVkoOnLA9+sVP3vWD+/XfMX/5Xw49yjAMwzDDJkiP+ht/e/2z38r/d9Ap+yr2qG5N8f+an63RSSoy1F5ANY/lnfFiVM80knRqPSrns4P/YgJNjC5COzTfGfzf66Y9+uZb6+p7oVK+/xN9uWeIHv3i9J0oRl//D++eXkZ/6DTZkx5lGIZhmGETuEfVFhGU+nx9+5+yz7ZXrkf1n3PKjFE9okTjf+gkvdnffvrN2X8fM0b16CT972fitx5mwvToZ7/2b+7R8/H675hCi3r0+sfvmJ/v3Pl9+94jd3L16OVffNVsufPV6L6lQROiR3/6bpSjX7P/tNPl0/iY6VGGYRiGGTYhe1TVpP4xvn5U/COdpNXqUZGYufpS7H98fHzTP4z/L59//i/mn+NN7icMnTA9+tG3X//qw/dOL928vHz/68lJ7egmIWtx8c6dN945tpsw+/76kT1q3yOV/rZS8aqf/jo+sBA9mmyx8tf5i1f0KMMwDMMMm1A9qu+aj1PSvp9JPuTWZ7V6VP+BJ/ND3SdUj5oQu/PlN8y9RMnFlGqi+5nEWOuIcuRf8ZSn1Af+/dHRPSq/sDSJXPmnQ/WfBT1+/z31t0WtO/RD9Kj9JwL+4O3vH6u/dWp9fRQ9yjAMwzDDJ0iPyj+M7/7Fe7tHJWvpVPB6VP4YzaBLTm8gVI/eqgndo5njfEOSmMHfpXTDHs38g/zJBO5R50+oxvPGW9/gfD3DMAzDjDWh1kc9fo/OAj16gwl0/ehP3kt/mbucL7/51vc+uPzc7GbPpz967H77kZgvvfkNE665e1TM5784+Lb9pfN6vvTGf3n3g18FPV8v5tcfPb5nLQB/+Wvv/fSzy+SY6VGGYRiGGTYT9Wi50aM3mDA9auZfv/hMzOXHpz/6+FL+a+CfF41HPkHs/4nc3dylPumol/zk9KNffjrWEUww4p0uP5GfdKrvwjAMwzD1G3qUsSdojzIMwzAMw4wx9ChjDz3KMAzDMEzRQ48y9tCjDMMwDMMUPfQoYw89yjAMwzBM0UOPMvbQowzDMAzDFD30KGMPPcowDMMwTNFDjzL20KMMwzAMwxQ9hx92/92j33olVwPiQ4mPZj4kM/bQowzDMAzDFD0//+Xlf/2rX3kxVwPiQ4mPZj4kM/bQowzDMAzDzGCO/uc/iHqrzSqp+CDi44gPZT4ek2foUYZhGIZhZjM//+Xl4YfdD579uAbEB2Fl9MZDjzIMwzAMwzCzHHqUYRiGYRiGmeXQowzDMAzDMMwshx5lGIZhGIZhZjn0KMMwDMMwDDPLoUcZhmEYhmGYWQ49yjAMwzAMw8xy6FGGYRiGYRhmlkOPMgzDMAzDMLMcepRhGIZhGIaZ5dCjDMMwDMMwzCyHHmUYhmEYhmFmOfQowzAMwzAMM8uhRxmGYRiGYZhZDj3KMAzDMAzDzHJMj/74p//wg/3j9u7/AAAAAKZNlKfoTx2iukdfAQAAAJN78uTxX/3V0zH9zdGZ7FFVpv4LAQAAADewvb31wx8ejunD8/9PtGjjB/vH3qsAAAAAN5OrR3/zz5+LFm20d/+H9yoAAADAzeTq0evra9Gi9CgAAACCoUcBAAAwS6JH/5+xp6w92t2dX15b6aa2z9zJg0ajsbDxwt8OAACAiOjR3x17Stej5+01UaLzrcPzg/Xy9eiL9uJC+7m3EQAAAI5q92isX8YePX7YePDM3wgAAACH6NG/G3vo0VzoUQAAgNFqcj8TPQoAAFBR9Oj00KMAAACj0aNT0dtYaDS4mQkAAGA0enR6WB8FAAAYjR6dHnoUAABgNHp0euhRAACA0ardo+bv4buaB1febjNCjwIAAIxWk/XRUuL7mQAAAEajR6eJ768HAAAYhR4FAADALNGjAAAAmCV6FAAAALNEjwIAAGCW6FEAAADMEj0a0tra2t///YfeRgAAAAxBj4ZEjwIAAORFj4ZEjwIAAORFj4ZEjwIAAORFj4ZEjwIAAORFj4ZEjwIAAORV/R7tHzaX1+aV5sGV/2ixAvXo6d7c3OO5ub2zV9dnLfGPx3NLR5fePii7zqr8j/h49TT+D7q989LbZyJXx4t326/d3dm4etV7uvOa/Pf+ibfPbJX/CAEA5fDzn/+Dt2WosvVod3d+efc8+vG8vTbf7iaPFi5Qj748akYNerm1LVOm1fH3welec6vnb5RMCOqgl1v079PbOHW9nSXxdqpBzQGEfuvOSlx4F/uy9u4dJ78QvcW1+LRnPb0AQ48QAIBIpXv0arO1vtn3tiR5WrygPaobVC2tDQiv221gj0p6XdnZQfwmC8163aO6QVUiB1/kVrWnC0+vRD7qpHZw1iNPHhWcpCOPEAAAqeLro750oRYq1PWjMl9MS6k2led8nR1Sa37iRze2zIl+LX5InzheOjrTy66ykHQ2xbWkFxflqp79CukDMAu3mlNa5gXFU6x9UkuD5hS24Yej2ChfM17pzNrB57yFOPjVU/F06xS526PO8TsfMPoNnOrfsHyFaGfnhLvzG3YfSnYwvxn1O8ms4eOHDTkPT7zt4+ht3IsLT5ZfqjX9HpVbkhVK9XTRiEbWmXRzwl2SL27WXOM9R77CyCMEAECqV492d2txvl7liykk2Z1+66g8svLLXk+V5NPtgJP7J8moekvtrDNLv5EKOLP/WWt7tbVtvYKfU7K07LqSgejkoHjl5tJ2vI97AOqAnYRNvaA4yKVt64PLY7aSURm1Pir2l+8bv6zboy7/NyaPR38i+3drvYL8gM67Zxyh9e7+6ycm6VF7vVPW3sqF8+ioHnXJ9JQXeiZbZH0mT5fvdW/HXuAUW5x3TL/C6CMEAECqUY+KGG0d9r2NxQrVo8OJVnNiTrLWR1Op5G20nu4GltWjXh3qjVEdZoadu1GmmHOQIsjiYLX/nbjc2rOyO5V36foco0d1CJrXGdaj/qPJh5VHEh1t/Eu2ftuW3k4r9d9ltvweHX6+3u3L3sY9f71T7JD06MV+1kt1VjgjDwDIryY92j9Yn3mMCoX06PCuclrKkiTUWD3qtKC7g72nxank1D52g6oF2ixWX6aa+4Y9qj6jfinv96YXPm3WoyN6VLyU91wj6zc/Q3JJ0jqf7sdodM97IunRq+PF9ErqxX7co+nnRtJn7QEAGKEOPTrz2+pj9Kj5cVSPZqyPusL1qPq33NP+vckYdX9L7m91dI9aO5dX+nx9QgalW5zO+ugYPTpkqRUAgFyq3qNXm63Z/9nRWCE9KltqWM+JFkyHmrVxrB5Nv0KSaJk15m4c2qNOLA4QskfNb2zAhzXc4x/Ro/bGMhvSo9mn43Ocr88MVgAAbqTSPdpdWV5b6dpbanJ//Qgip9yrM9WWpJBE/KUW/5L9x+nR7Wbqjij7Rz8oU4mcCj6nR1XPeUkqdsh9vt6+iUockvej/frq95OckZc/OvWpzrbn6FH/3c2jNzhfP9H9TKMM71G7Ps2ZfWuLWg21ilMuiLr3M6VXWL1boMby/MnCFH8DAIBqqHKPWt/MZLkFPSrJHoovW0zffiSDL3nUDlCzUZWT+VF2lV1susZMpWn+68t8TB51ysx6SD9LhprZYjWi9wrWQ95Bxr0oZFR49FByhPZnt7PS+RT2p5Olq99Uvn7ydFXA5kd5eOaDWHka7am4eTqmqfWoTMPhl3XaV5fK++Ll8qd3jan9IqJErfP1GTsI+VdMexsqR+8fe9sBALdKTe5nKokCe3SarNVBIJHu0Yk9uy9q9MGz1HYAwK1Cj4ZEj6K+vFP8Qcjl4YWNF6ntAIDbhR4NqQY96pzo9y/ZxC0j/8R9cjo+dIy+uj55wOIoAECgR0OqyfooAABAgejRkOhRAACAvOjRkOhRAACAvOjRkOhRAACAvOjRkOhRAACAvOjRkOhRAACAvOjRkOhRAACAvOjRkOhRAACAvOjRkOhRAACAvOjRkIrt0ZdHzTm+2BMjXOy/dnf/xNsIAECZVL9H+4fN5bV5rd31Hy1WoB493VNf17l3Jr9KXn1159LRpbePMG6P6q8Atffs7SxFXwcqX0T+e/U0fjSEzkr8DZOyh8S/dzauvH3CMV9rOcXqOnkkP87i0563/ebMr2X6pThZj+oPPvxQe093on2kvL8l9RbZL27e/VEn/l9UyP8EAIDSqHaP9g/W55d3z6Mfz9szTtJAPaobUTXo5da27NFWx98nHxGgTrnqzFUNmq7VEHob90Q9qAadfiwqolem+xaiukLH0NSPeUIiB5OPLP87Zh3toO2jxYnZ2biX/Qq6dNUx6P9FTeE79AEAJVCz8/VXm60kT4sXtEd1g6q1UrmQae+QW2aP6i16rVSuxcaPBqDrQUeGyo57xxN+hFHo0eA6K+5/tezfwMW+Wr90N+Yj/tcyrEd1g6q10mmusgMAZoceDSnU9aNyzdI0qGpT/2S6OaE/ZF1Tr3pqojX9HlXLrqZBZZtmXg9w/LAh5+GJt30ssh5Mzag2tZJFn4SVZWPOWWd3hjlXq6WLxyy7KvKN/LbTKRO7wbqafQDi6ekaG3GE3jE86ogf3cNIjjl5KScBzaKgtnIRd5tKfEP96pLfZPIK1rv7tecdWOqN9G4jetR5kYgfrPaBDYzvgT2qnm7+t6HebtArAACqrVY9Kk/f1+F8vVqzNA067CJRvzIN7yl6tdV7EVG0UYPKHs28HmCiHpX1YBJNtk46Uxbv7STtJbPDTg3/KfLV7Dby9jfR425xAjHrGIbx9pc/urE16gj1U6xj0PU2qEdTB2yC29pfH0PyGa3fcLKD+/raoFVYsd39PwPEMaQC1DmAR86jRvrII/7vRH6izAVOceSZR+hcDJD6DQMA6qMWPRrf0lST+5nGld2jZ630xs7qwKidDVmQToKcPEpKRZRHuh2tjVn54lzF6C/saSePBkRPmsjl1AGcWBdTjjrC7FcQO2T2qFwcTR2w/QuJuB/c+cipHxODetT5ROkfFR3BRlbsDu5RcTzp/wqZG4f0KADgdqjd+mjrsJ/aXpgy9KhIz/TFoANWUmcnlWt2fmWlmEoZ3T3ZTWNVlyyzpKJs2UWVIsosvaedmyOOcMArpIhjlkeVLtchEWmzCzKrJrXBLyV/UfYvzdtNxqj1KcSPWZ96UI9mFfmA9KRHAeC2q9n1ozJJV7r+xsLQo+Oado9m7JBDgT0qXiez88bqUdmC5pPql3IfNYa8VFKc4tNlXDDg/RozE5MeBQBMrIY92jy48jYWhvP14xrao86J74i1MStfRDwl1ZVZeHlktZS9ADnqCLPyLkNciumaTEpxKLPb0LcbmramaLNy1srreMtK6lMP7NHM/6sgcyM9CgC3XqV79GqztWbXp/fnSItXih5VNzDZS6T6Xvv8PTrR/UwjDO3RjKBMFgKzfpQx2nYuSJVbvMASyTVO4Wl+DooYdU+sjzpC9QruZ5Rb3HSzSlEesNtk6Y+gPqb3EVSJHg+N16E9qkv0qXfwxoj/KNqgHs2o9qzqlcQrT9CjJw/U/04X2s9TDwEAKqLy66Pyb+DH388004tHhUJ61Nwv73P+RqmzjyhRUa6pfUaaVo/qtpNMA8lS1FusfEk2WntaRAYlO4iaMftbWea+QnYJDaHyMXq6ODBZfuLfyZGMOkL7kypOMprjNx1mXtzaongfITPa1D4jfj+JdLbqtx6Qs84BePt4n04buo/3n8D7dFre/0yvnt1XNbrxwtsOAKiQup2vn62C10eBW+9Fe7HRWHyS/j8GAAAVQo+GRI8ChXr+ZGFKl5QAAApEj4ZEjwJF6m0ssDgKADVAj4ZEjwIAAORFj4ZEj5afdedQNveWcAAAMHX0aEj0KAAAQF70aEj0KAAAQF70aEj0KAAAQF70aEj0KAAAQF70aEj0KAAAQF70aEj0KAAAQF70aEj0KAAAQF70aEj0KAAAQF616dGrzdba/PLuub+9UIF69HRvbu7x3Nze2avrs5b4x+O5paNLb5+SK+4jyG+M5BvMAQCospr0aP9gfb69u1KTHn151IwC7nJrW8Zcq+PvU3KFfYTjh40Hz/yNAACgSmrRo/3DpizRbr16VAecWmhsbvWcHcqvqI/w/MnC4pOq/XIAAICjDj163l5rHlxd16dHX3VW44BTYbd6Gj2kz4PLdUe5j/y3JE+LR88VoodUDprlSftF7H38h/T27Z2X0Xl2fwcjflmhudXZWZJPsXYY/BES+lR7Y5KgpEcBAKi+6vdod3e+ddiX/65Pj/Z2lqKAkzGXSr2lvVW7/zKDT2xsHYnXiU6Ui2dFV3D6rynfzl6/PGttr7a2rS1yB/uEu4xR60dVrt5BDv8IGj0KAACEqveoaND1zX7875r06HBy6TG13GjlppYZqZIoxXQdOhtlX1q5GW1MdhA9OqXz73nRowAAVF+1e1TdxtSNfrxFPeqdoBdEULob5fqo35RKqlwVkZhxvIoeTYesvYNgn82f0e3/z+43GtzMBABA9VW7R8/ba/PLnlkm6S3qUYe8qjV9SEVgfRQAgOqrw/1MkVu0Ppo+4Z51vj67R8c6X58+HW+fr0/LTNgC0KMAAFQfPRpSUT26tJ26ISkViwN7VD3kxqsXoCI9m+4dTu4Fo6kFWvGCN1kf5X4mAAAg1KNH9Zcz3Z7z9bIm5V1N8RWc9tqkaMd4e8xf7zTfn5T9qF4Kda4QddLWeWvlZifr6VEAACDUaX109orsUW9jSMNPzZcL388EAEDl0aMh0aPF4/vrAQCoOno0pOn3qHOefRrV6JyL98/yAwAAhEePhlTM+igAAECd0KMh0aMAAAB50aMh0aMAAAB50aMh0aMAAAB50aMhTd6jnU7n6qoy97YDAABMjh4NiR4FAADIix4NiR4FAADIix4NiR4FAADIix4NiR4FAADIix4NiR5FaL2Ne+3Fp73UdgAA6qPqPdpdWV6bt7UO+/4+xSlLj15ubcsv/JRfc9/bWVJf/tnqePuEEL24YX1/qfle070z+W346tHA37l/8qj92t32a48619edFfGPu3WNtin26K35HQIAyq4GPbp77m+cmdKsj+ocVA2qc3Aa30Qvq3dQ5r48akYNauI4cBD3nu5E/SSLTfx75cLfZ0LiLYK/pmZCUNFvkd5SgAJ+hwAAjIMeDalcPaobVOfg6mlqn4mJ0h34srpHdYNaBxOObikr5nY2rpwdJje9HhXk8cuFSXtjZ2UKn2KIAn6HAACMgx4NqTQ9qnLQxKLMQetMutkiF03VDvE5d3luPdrHOxFvP5R+VHPf4lVnNW5Q+2AcvY2FhpjFJzdJ1Yv9uJ9UV+2feDtEa36afSZaL0bGW3SWCXF9xlsc946d45QHkDzqn+m+Ol60tkfLn1bwyR3cYxYv6LyFOYee8eJGsoNkPTdebbWfmHyouINH/w4BAChCza4fXd/sezsUqjz3M4kcjAJR1qcXlNLl1vbqlpOt8RKmv/Apg9LLTWnY+qhqVvPogKeLfSbpUavnZEt5sahazV7dlIlmr0de7HuRJ17EWw1Nb0mId3ff0X99Tb7LsTgS817iWdY+4ineEWa+nTiMrB4Vte0uZ8q4TILy5FHWYqd7AKN+hwAAFKTqPeoReTrLJC1Pj46mzuNndKodppbOauoC0KE9OluZbedsnKhHRQtmLCX2nu77CWgtQGYQj8Z1aKWhJ7NHs4/t6ngl3jP+gPYxpD41AABlULMefdU/WG8eXHkbC1OxHs2sSXP7UQY/Xsvbo9m96NTYRD3qnii3+LU3ov+SC0bFe2UsryqZPSqXY1PvLsVrnNFSqHxl67KBAZ8IAIBZqluPXnd36dGxDOnRMe89utU9mr2W6RvRozIQ1Q7yUtdBpTioR0eVZW/jkWhT9cqP9JWpA34tAADMWt169Ly9ttL1NxamDj0qL/cc72+F1ut8ffopg3t0nBxURvWo2EGW4uCT9UJmj8onDlhPjclLSC/0K6uFWPFvrhAFAJRSpXv0arO1Nt/uxlv6B+v8PfxxDexRfcreS9Ksm6Im7tGJ7mcawV/CFFXnBJyTgOb8e7pHrVt85EKj9aN8iru/3MEPx5E9qkpx5VHmHUtGdo+qJvaS1D1g9e73zKcWO4t/jzqYLCcP5H+jxkL7eeohAAACqfz6qGzQ+P76mcaoUIkeHeevNSV/E8pw8lT+LSfnUSnr1qgRptmjujitCytTq4my3syj8iJO86O7m2w+s0+qNXWhRo8Kdp7aT4xlLqmq903f8+S/uOEucFofQfE+o/oNmDeVdzVlH8Bwz+6rGt144W0HACCg2l0/OlNVWh8FRnvRXpza/8EAAECEHg2JHkWtPH+y0Gg8PEltBwAgKHo0JHoUdSIvqGBxFAAwffRoSPQoAABAXvRoSPQoAABAXvRoSPQoAABAXvRoSPQoAABAXvRoSPQoAABAXvRoSPQoAABAXvRoSPQoAABAXvRoSPQoAABAXvRoSPQoAABAXvRoSPQoAABAXrXp0e7K8tq81jrs+48WpCw9erm1PTf3eG7p6PJVb2fpsfx3q+PtM12ne/JNpe2dm3wcc9jNrd71y6OmeqnVU2+fQF60FxuNxoNn/nYAAFCQOvRo/2B9fnl9s+9vL15p1kd1DqoGPWtFYeftM9zpXu6nZBBZebMeNYetGrSzevOuHe3kQeP+sb8RAAAUqPo92t2db3f9jTNSrh7VQanXSnMvLpaiR/Vz9Vrp3llqnxB6GwsLGy+8jQAAoEhV79GrzfbMzs6nlaZH1Tlu06CyTdNRqBcdtb0zsU98Qj851W5LclCvXErRU8zlAdaWyOAedd8l3b7qNc2byneU1x44O0jHDxtyHp5423OgRwEAmLmK92j/sCkXR5OLR1e6qX0KVJ77mURuRiEoy89bXLQeFfQFml5KDl0fFYHoPSrz0Y9RYUCPind0+1IWZ+oA4gbNeFSjRwEAqIMa9OjhZivO0Cvr3zNQnh4dTvToqNPfw8/Xy4S1X8EN3ERmj4qNGe9+ubWX9QrTRo8CADBzFe/R7u788lrz4MraOMsz+FXp0WhNNJJxdemo60ftJdIBi6NCZo/alwo4hr9jeGp5lZuZAACYteqvjy7vnjsbuyv8vaecRDWmWnDk/UzJEumAk/LSoB4dtTpbHNZHAQCYuerfz+SfoO+uzO52+4r2aMYFnaN7NF4itS70TMlOVfHEaf0x0dzoUQAAZq7qPeotkXL96Bgut7a91rRPvhvuXVDyjqL0oqZcIt1uLg2Jy0FLp/KUvfusrDXakbifCQCAOqh+jwoySbm/fmzJn2caeuGms1v25aGqU9OLo+7FqTH3XWSA2o/eZMWUHgUAoA5q0aOlUdnz9Tckm7I0Z95viO9nAgBg1ujRkG5Zjw67crQ6+P56AABmjB4N6Xb0qLy01D7VPujmegAAgHHQoyHdtvP1AAAAk6NHQ6JHAQAA8qJHQ6JHAQAA8qJHQ6JHAQAA8qJHQ5p5j5KzAACgcujRkOhRAACAvOjRkOhRAACAvOjRkOhRAACAvOjRkOhRAACAvOjRkOjRnORXPe2deRsBAMDtUukevdpsrc0ve9Y3+95uxalNj3ZW1XeBrp7G3w4afymofijQd4TeqEfPWvLYmls9b3s+5nPJd9cvGPq7+E8etV+7237tUef6urMi/nG3vfi05+1zfd3buNd+7d7xoM9iXkTI3kc9Xe8g38h99Op4cdhzxzxCAACmruo96tVnekuhatOjvZ2lKDpfHjWjbot3OGvN+jvrT/dG9uiIg9SfSzXo5da27NFWx99nIr2nO1HhmWpcubB2iGJx5aKzMqAXxSskgXixny5OEZTxazo7S+JNdzauMh8yRhwhAABFqdf5+v5hc3n33NtYoJr1qG5QtSDqrh3Wp0d1g6q10kkXXH269nThqZVIU4cpA3pUBKsboL2n+84rXOx7lXnyaP8k+bGzkjzd/ndi7CMEAGC6atWj/YP1+XbX21ik+lw/Kk9hmwZVbequHarU082qpFcWzarqwB3MkqQ04Hy9OZ8urZ5G+8dZrHp00IuY8+8e/xhkZ5sGVUcrL05wdhB6GwsNMYtPbpKqF/tx4anys2PRNqBHL/b91Uo3QP08Ve9iPWX0+ujYRwgAwHTVqUfl5aQrXW9joerTozL1TMDJ7vTWDnXwxQFn7ayJ1HMCUe6QfXWmv6fm7q8OYGnbOQZdq/GbyqD0X2fUIq58WfMR5NMzd56oR+UZeVN4svYGnJQf1KNuXCruKfuTR/5ypt+do64fHfsIAQCYrhr16KxP1gv16dHhRI+6q4mi7ZIczA7B072sBcjMHu2s+vGaamLRo+56p0hY7/Vnf1HBmAb2qL+o6feof7mn8xS59qli1OU3LgAAJVCfHp35yXrh9vSol3p2j8p2TM6S2/wz5kJWj6ZaUxC56fWot2RLj2Y+RYrvwefyUABASdWmR2d/sl6gR/W/xw9BejRXj9pbMns0vfyZvM7V8SJn5AEApVSXHi3ByXqBHpX8dhzm5ufr696j6Xz0Lxh1l0vVOmjGDUn2TffuDfgAAJRFTXq0DCfrBXo0/jHrFqgxz9eruLR3Fs9N3880Ro/a7yjeKPMAhpvofqZxDehR8e72eqdfn5JdqANO1rM+CgCogHr0aClO1gu3oUdV2CmmCK0/7WQXob4HP+bVpP1QzH66TNJou3iuveaavLJZRpX5a7Y4xWltz/5zTiNNsUfjm98d3vplfOnnoHvkzfcqSalajXD9KACg7OpzP1MZ3Jb10eLZPQoAAOqFHg2JHp2Szmqob8wHAAClQ4+GRI+G45zTJ0YBAKgxejQkehQAACAvejQkehQAACAvejQkehQAACAvejQkehQAACAvejSkmfcoAABA5dCjIdGjAAAAedGjIdGjAAAAedGjIdGjAAAAedGjIdGjAAAAedGjIdGjAAAAeVW/R/uHzeW1eaV5cOU/WqwS9ejJg0ajsbDxwt8OAABQMhXvURmju+fRj+ftGSdpydZHjx82FtrPvY0AAADlUu0e7R+sr3TtLd0VK0+LV7IefdFepEcBAEDZ0aMh0aMAAAB5Vf360e5K67Af/9jddfO0aPQoAABAXtW/n6m7q29mkuw2nYWS9eirZ/cbD0/8jQAAAKVS8R4VMequj863u8mjhStbj6pbmhqN+8ep7QAAAGVR7R49b6+5J+ivNltcP5pgfRQAAJRf1Xt0fbPvbaFHY1w/CgAAKqDi5+v7h037BD3n6x30KAAAqIDK38/UP1jnfqYB6FEAAFABle/RUilZjx4/bDx45m8EAAAoF3o0pBL1KN9fDwAAKoIeDalk66MAAAAVQI+GRI8CAADkRY+GRI8CAADkRY+GRI8CAADkRY+GRI8CAADkRY+GNHmPAgAA3Db0aEj0KAAAQF70aEj0KAAAQF70aEj0KAAAQF70aEj0KAAAQF70aEj0KAAAQF416NHuyvLavNbuph4tVLAeff5kodFo3D/2twMAANRO1Xv0arO11jy40j/2D9Znm6RB10dftBcbD0+8jQAAAHVT8R7t7noB2j/Y3ewnPxYs7Pn6Z/fpUQAAUH+V79F4cXTglgLRowAAAHnVbX00Y0uB6FEAAIC8anX96Hl7xnc1he3R3sbCwsYLbyMAAEDNVL1HBZmk+v56Gab9w2ZdelTf0tRYfNLztwMAANRHDXrU0T9Yr831o6yPAgCA26BmPdpdWd499zcWh+tHAQAA8qpTj4oYXZ/hH3sSiuxR8agczuYDAICKq3iP9g+b8ZczzTpGhQJ79PihrNGF9nNvOwAAQMXU7frR2Qraoy/ai4NzU32hKFeXAgCAGqBHQwrWo6O+v763IR5/8Cy1HQAAoHLo0ZDCnq8fTP4dKBZHAQBAPdCjIRXVowAAAPVBj4ZEjwIAAORFj4ZEjwIAAORFj4ZEjwIAAORFj4YkevTw8PCfGIZhGIZhmLHn4uLC/GuMoUdHoEcZhmEYhmHyDj0aEj3KMAzDMAyTd+jRkOIe9bYDAABgkDGvH6VHx0KP3l5Xx4v3jnveRgAAMAZ6NKSS9ejp3tzc3pm3EVNx8qi9cuFvBAAA46hCj/b2//2//aN/v9Xztxu99974o//73yrfuEg9WqhAPSo78rFOybOW+MfjuaWjS28fqbezpB41tndeujsM7FHria1O6tFK6Kyq4189jX9dqY8/mavjxbvt1+7ubFy96j3deU3+e//E2ycmd/YfFYUqn/Woc33dWZFPby8+HfS/YQAAbrVS9+jLrRUVmu9++KN3B/Xoh9/4o7d+ZP4t9h+crUUI1KMvj5oisFSDXm5tD6pG+dCENSlKLu8rmPhLDskcobtx+nRSqwbVv67gK8E6IlVlXuzLshx8Ol6kZ7o1dcWq7b2Ne7JHWUAFACBTRc7XD+rR1PYPv/Huh9aPBQvao7rtVP81xYe0d1DOWmp1MLU9hxv0qKTXJp31yAAHk4/uUd2g6niyl5AnoHpUN6heK5Urnd4+mtgzY+lU96huULVWKpda7R0AAIBW7R59ufXuez1vy0q8XFq8UNePysAyDara1E097zS95tShtWY5dNVwYI96b+G9iDi8vTPxXCsBvR51Fk2d449a9lQvasrDjnb2A9d6BeehZAdzAOpoMz/I8cOGnIcn3vZxqEVN06CyTQedbRfdmf2QXFU1DaradPDpfgAAbrdq9+iH31hJ9+gMT9mH6lEZWKbhZI9m1JgwxpKkCkd/o2VAj/qv7B+DflnrIEccjNzTXuJVrakOzFsJjg5GFKq7JCwr1nt9WbFmf//1E5P0qH0WXvbogLPt2YujknVRqexR7r4HAGCAqvdocvGoVo8eHcu0evR0L6vtOqvJntHLypo0rz/iYNw3OmvFdWsdoXg1vU/8D0dvpxX6jHwAMjQHnscHAABjoUdDqkOPeqfaLfFLJS8rjkHHq38weuHTNn6PiqPynmtkrxPPUmeFq0IBAJhYDXu0BtePjmV6PZp97jthv6z4t8xE52BkjLrtmGt9NOuoyulin8VRAAAmV+0eFdvdvznae++NGtxfP54p9ajswhH3qjsvq6/jtA9GbPEPLFePjjzskuht3GNxFACAACreo+4tTbM9WS/Uokd1YnpJKvZMXsp7WXV7u3W/kS7U6FF5nPJse44e9d4uevQG5+snup9phCCLoycP1AEutJ+nHgIA4NYodY+KvjRfvGTzv4Tp4q2BDxWtmB4VDRdfUhmz6k3GnPeoFPeiCUSf23/ei8R5am93N9pxbL+FPPuvnyX3Tw5eXRVgfpTPlcUp/m3labSn4h7emKbXo/KvQU3+9+2f3Vc1uvHC2w4AwK1SkfXRiih0fRQzdLEf4u83vWgvNhqLTyZ+HQAAqo0eDYkeRQ7PnyxM6VoCAAAqhR4NiR7F+HobCyyOAgAg0KMh0aMAAAB50aMhxT3KMAzDMAzDjDkXFxfmX2MMPToCPcowDMMwDJN36NGQ6FGGYRiGYZi8Q4+GJHr07//+Q28jAAAAhhjz+tEIPToUPQoAAJAXPRoSPQoAAJAXPRoSPQoAAJAXPRoSPQoAAJAXPRoSPQoAAJBXFXq0f9hcXmseXPnbY93d+eW1lW5qe+EC9ejp3tzc47m5vbNX12ct8Y/Hc0tHl94+id7Oktxn9dTbjqHy/ZInIb8XlO+pBwBgsFL3aP9gXYTm/PLueXc3s0fP2+LRtfnW4fnBeo169OVRM8qjy61tmUqtjr+PSxRVvh4VbzHqNYczB6a1OrkPYOby/5Jv6Phh48EzfyMAAEhU5Hz9gB6NiXKtXY/qPFLLeM2tnrNDSsE9KgPOerruuUr2aJ5f8s08f7Kw+GQqrwwAQF3QoyGFun60sxrnkcqmVOqZc/TK9s5Lv0fNCWhrh/gh02G+ofv45Sre3d0/K4idBVT7VLh5cXmiXG2RH9bfx5xM168Zf9j4KZr9SxB7ih/tHZxHU88VRv6SBX2qvTFJUNKjAACMQo+GFKpHZUuZPJKp5MWfDCkrnkzPZeWU5u2viJcde31UlqV7baXsXXeLR+5gv77sSy8WvUDsrKZeULzv6pZViqd7yRKmX5C6PpPX9Ps449c4/Jes0aMAABSAHg0pVI8OIyvNi0s7rbKIp/gno/P0qCra1PpitIQpeSkpHkq/uLNx3B7NWteUzlrpfLRe0y7XRGc1x0cOhh4FAGAUejSkAnpUVFfGSp6/HGjHopKzR2Xguq+Q3YWGfLvkqLKKWbCLc9weHRDZWX1sUSHrHb829FOE9+x+o8HNTAAAjEKPhlSOHpV16IRXzvVRGaPu/iP6T7Dfogw9mrU+OhusjwIAMAo9GlIpztenz2Vn9NmQHs14yO2/rOc6b3GD8/XiNXP0qPN5M2S92qzQowAAjEKPhlREj6o6tItTxtmcdXPPWcte3TSPZvSoe4Y9OeEuH7Ji0Zz6d3tUbHGK01+wzLqdyN8hPiT17hk3SA3uUf/4oy3Jm8rX9F4wtWw8Bu5nAgCgAKXuUVGZ6u/hu9rdeAfz9/Bdw8t1qorpUUH0n74g0pSoyDv5b9OIpkHjR03weWuWJjSVjHSzH9JvZwVrq2Ne03DTUHKOISsErY8gD8x+C++5WvotnF9CxlvYn0K4yYopPQoAQAEqsj5aEYX1KKqD72cCAGAEejQkehRpfH89AADD0aMh0aMAAAB50aMh0aMAAAB50aMh0aMAAAB50aMh0aMAAAB50aMh0aMAAAB50aMhTd6jnU7n6sr/Q5sAAAA1Ro+GRI8CAADkRY+GRI8CAADkRY+GRI8CAADkRY+GRI8CAADkRY+GVLMe7e0sPW5u9VLbAQAAAqpCj/YPm8trzYMrf7umHp1XBu5TlLL06OXW9tzc47mlo0vVlPLfrY61Q7TR3+6ZYo+OOsJgnj+RXx4vZ6H9PPUoAAAogVL3aP9gXYXm7nl3N7s1u7vy0ejH8/bafLubPFq40qyPnu7FhXfWkrWXnZVit+lUoHDW2t4Z8kHGPMKJiR5dfMISLwAAZVaR8/XZPXq12Vrf7HtbkjwtXrl6VBeeXolcPU3tI8y6R0cf4cToUQAASq/SPZqWLtRClaZHXx4148KT5TcgDQf2aGd1zpzQH7RsaU64m306O0vJW+j1Tp/3RuMc4Yv2ojrRvvEi9dDY6FEAAEqvXj3a3eV8vSaCMio8WXt7Z86jkYE9aojozOxRGaPWE1WA+kE5Yn10nCOkRwEAuBVq1KMiRluHfW9jscrTo+OZoEcHrZvGRvVoQehRAABKryY9Ku98mnWMCrelRwXnpLy8TT69Az0KAADGUYcenflt9bFb1KOOrBPu9CgAABhP1Xv0arM1+z87GrutPaqWS70b5OlRAAAwnkr3aHdleW2la2/h/vpcbtijnVVvNVTeLJ9eH7XvqVc37A99rwzczwQAwK1Q6h6N/h6+Kz41b30zk4UeHSX77zElQWl9e5MtuUg0+WtQkay7493XucmfF6VHAQC4FSqyPloRVVsfvQXoUQAASo8eDYkeLR3Ro3KNVS6z8v31AACUEz0aEj0KAACQFz0aEj0KAACQFz0aEj0KAACQFz0aEj0KAACQFz0aEj0KAACQFz0a0sx7lJwFAACVQ4+GRI8CAADkRY+GRI8CAADkRY+GRI8CAADkRY+GRI8CAADkRY+GRI8CAADkVYUe7R82l9eaB1f+dk09Oq+1u/6jxapfj/Y25Ne/PzzxtwMAAIRS6h7tH6yr0Nw97+5m9qjaYfc8+vG8PeMkrV2PHj9sPHjmbwQAAAipIufrB/RoytVmK8nT4tWtR58/WVh80vM2AgAABEWPhkSPAgAA5FWrHpWn7zlfT48CAIBKqUWPxrc0cT8TPQoAAKqmduujrcN+anth6tSjz+43GtzMBAAApq9m14/KJF3p+hsLw/ooAABAXjXs0TH3nAZ6FAAAIK9K9+jVZsv5O/nenyMtHj0KAACQV6l7VPVl9N1LMfemJfk38OOHZnrxqECPAgAA5FWR9dGKqFuP8v1MAABg+ujRkGrXo3x/PQAAmDp6NKT69SgAAMC00aMh0aMAAAB50aMh0aMAAAB50aMh0aMAAAB50aMh0aMAAAB50aMh1aBHKVoAAFAwejQkehQAACAvejQkehQAACAvejQkehQAACAvejQkehQAACAvejQkehQAACCvKvRo/7C5vNY8uPK3O642W2vzy7vn/vZC0aOR0725ucdzc3tnr67PWuIfj+eWji69fWZr6kd48qj92t32a48619edFfGPu+3Fpz1vH+nqeFE9atw77nk7TMPF/jjvNe5HAABgMqXu0f7B+vyyqszu7vAelXu2d1fo0bL06MujZlR4l1vbsvZaHXef3s6SbEF3Y4FGH+GEek93ooDrbdyTMbdy4e+jH8raPhbxFjd+rkzMUT063kcAAGBSFTlfP7xH5QKqKNEuPVqyHtWFp1Yim1te+pSjR4cd4YR0zOmAUwuNOxtXzg5KZ+Xu/om/cVzF9OiojwAAwKTq0KPnbX02nx4tT4++6qzGhafKb/U0fkiUqDo/7kpyUJeitL1jjkS+WrRF/1s+ZM6zK9bra967pNt3yBHGehsLDTGLT26SqvKcuAk4FXZud3qn6TUnEM2SZMR5ui5FX7ov9Xn5+NGLfeuEu+pR6zAy0nb4RwAAIJDq92h3d7512Jf/pkdL1KMyB03hydqLyzI2dH1UPsV7VORj8iJnre3V1ra1oqnq0zrhLlLV6cuMYxh5hMJEPSpTzwScjLnsxciB66Mnj9xAlK/mL0+Klx2yPipXNO03VW3q9KjM0Pjds64cGOsjAAAwqar3qGjQ9c1+/G96tCw9OtLQHlVBaZ9Al5d4urmZvtxTRKppytM9+7mRzmrqKbM3oEedhcxYZ0XeWpRsGdajIiXdnSVvfdR768ynAAAwfdXuUXUbUzf6kR6tUY+6S6TO4qjgL38qoln1RnN/Uoah7zgT2T2qTo5H59kdzs5DelQ8lFW0ttT1o/QoAGBGqt2j5+01dQO+bZZJSo+Ob1SP2kukp3veaujIHs1aHy2lgT06qiYlehQAUA91uJ8pwvpovXo0WiK1LvSMeGfzo43RGqp4Ytn+3OkgA87XizQc42LNIT0qrxYd8Qr0KACgLOjRkOjR8cnKTJpSpmdmYj5uLm2n/1K9SM+m/fTUmqg8Ze89S/5Rp7zn6ye6n2ksA3pUtaYflPKGJP98vbWPuh/feoq8n8ntS/cOpzA9+uy+/A1N81cEAKi/Uvdo9PfwXckFozH95Uwa5+ur0aNC/FechMzb202npk/N66VQUavJtaHpe5XMNzBFbrJiOsUeVXe7+7wc9Pbx8lFRfxbUSJ+gl8EaP93eIXll+8856S3ZfTzA8UP5C1poP/e2AwCQQ0XWRyuCHg1NNGVWRyan5jFTz5+IYF/YeOFvBwAgD3o0JHo0rIwrRzV6tBzU+vGDZ6ntAADkQo+GRI8GITPUOdXunIu3z/JnXHKK4rxoL7I4CgAIgB4NiR4FAADIix4NiR4FAADIix4NiR4FAADIix4NiR4FAADIix4NiR4FAADIix4NiR4FAADIix4NiR4FAADIix4NiR4FAADIix4NiR4FAADIix4NiR7N6XRvbm7vzNtYpJdHzTm+ehQAgNmqQo/2D5vLa82DK3+71F1ZXpu3tQ77/j7FoUcjMjQf69Y8a6nv9lw6uvT2ESrco+ZLTeUXlsoXkf/O/Kp9AAAwSql7tH+wripz97y7O7hHd8/9jTNDj0Z0oqkGvdzalj3qfAf9pMxrukJ/l70ozmGtrDtbNaj+Sv3w66wX+4tPe/5GAABqpyLn6+nR8ZSsR3WDqrXS0LFoiDCd0iuP16O6QfVaafiFXnoUAHA70KMh0aMxuWRoSlG1qXcu21rgHJRxetEx2kdEbdYKa2aPJiuy0Zl0wT+Zbq4oENLrmuZcvMd7I/Uu5uBlm2ZekHD8sCHn4Ym3fZSL/dfutlP2T6x9Th5ZG6+OF/U+jzryUfNjvH9nRT9679j+CL2nO9ErSysXyUMAABSpBj1qXz+6vtn3digUPRqTSWcSUEbhoHPZIjoze1Rst55ir7a6Bq6PiqcsbTfjFx94DOI4Bx3biPVRWbRRg8oezbwg4aY9qo1eH+1t3NvfkFlp0vPk0c7GVfKQ3a+ySu0eFcmr49UQ+7dZjgUAzETVe9Qj8nSWSUqP5jWkR4e2YGRYj7oBKvbMut9ogh6dvrF6NFoT9Q3vUbdNIyePvKcAAFCEmvWovAVqzD2ngR7Na3B36jXRSFZKSsN61F2wrG2PDirIoT0an99P4aw9AKB4devRHHtOAT2a15jroCINs++Iokdv3KNZ66MAAMxE3Xr0vL220vU3FoYezWvc8/KyL7NuGKJHx+9Rp0HFo/GVpgAAzFile/Rqs7U23+7GW+TfK+Xv4degR9OVedaayfqo9abiBW/wV6smvZ/Jvqde3VDv1eeQHpX7xzlrbqW310TlKXsvSeVt+P75+pMH6hMstJ+72wEACKfUPRr9PXyXFaD+PjONUYEeHU/yt5YccS+KdvQe8kIwvYMQ72M9qmNXlqXZoiNVxWW0TyKVmyKX40cHZetQk/Vo3JGafd9S5gWg/in46M88CfK5+ke7Qa0d/IeMZ/dVjW688LYDABBQRdZHK4IeRb28aC82GotPvEwHACAsejQkehS18vzJwgSLuwAAjIkeDYkeRZ30NhZYHAUAFIAeDYkeBQAAyIseDYkeBQAAyIseDYkeBQAAyIseDYkeBQAAyIseDYkeBQAAyIseDYkeBQAAyIseDYkeBQAAyIseDYkeBQAAyIseDYkeBQAAyIseDYkeLZveztLj5hbfMAQAQJlVoUf7h83ltebBlb/d0V1ZXpvXWod9/9GC0KOR0725ucdzc3tnr67PWuIfj+eWji69fYowwx7trMrfwOPV0/i3sb0zpdA/ftho8MWeAIDqKnWP9g/WVWLunnd3h/So2m19s+9vLx49Gnl51Iwa9HJrW9ZYq+PvM6HTvXIvfMoUNg2qfxuqzlO7Ta63sbCw8cLbCABAhVTkfP2QHu3uzre7/sYZoUcjusB0g6rVwfDtWI0e1Q2q1kqntUL87H7j4Ym/EQCACql6j15ttmd2dj6NHo3JAjO9qNpUnrZ2dojO42vJ6qnOOLm/WVhVnPQ0p7893uqjOV0uDMpW+/XdWNTPlUubyUFm1GTyFvLdxVG5a8DyueZZ6kNlrhCrU+2NiYKSHgUAVF3Fe7R/2JSLo8nFoyvd1D4FokdjssBMg8oe9S6dlI/amSjT0Ao+8eNqy8k7q+0i462PipfK3E2+oB2IsnGdoj1rbTetg/T3lzFqfSh7PTgiP5TZ4n/eBD0KAEAdevRwsxVn6JX17xmgR8eS2Yj2RllyqfVIsdFZZJ2kR1NrmemNGQHqHJLo0SldD5oXPQoAqLqK92h3d96/9X6WZ/Dp0bGctbLuNH951Iz6b1BEOhsn6FE/bQ2nOFMH6fVotCYayXrBqXv+ZKHR4GYmAEDVVX99dHn33NnYXeHvPaW2j48eNT+O7lHH4DPyU8f6KACg6qp/P5N/gr67Mrvb7enRsQxqxHij+Hf6fLofkVM/X5+rR1VPD99hWuhRAEDVVb1HvSVSrh+tQo+q1US39kQLWjEnI3LJTdJ0QYot1hWc8nLPrAs6s3tU7e/UrTz57t/PNKRH0y8rXnCcPvZxPxMAAOXu0ejv4bvSy5/qC5z0o9xfX4keFew/luTfO6+XQsX/O2iHeLdkB6dW5dnz5KGY8yLePnaMJsdmElO2r95iItV5a+UmMSrQowAAVGV9tCLo0TB0j3obMQDfzwQAqDp6NCR6NAx6NB++vx4AUG30aEj06OTc0+jpu44AAEDd0KMh0aMAAAB50aMh0aMAAAB50aMh0aMAAAB50aMh0aMAAAB50aMh0aPkLAAAyIseDYkepUcBAEBe9GhI9Cg9CgAA8qJHQ6JH6VEAAJAXPRoSPUqPAgCAvOjRkOhRehQAAORVhR7tHzaX15oHV/7266vN1tr8smd9s+/tVhx6NFSPmm8NbW71rl8eNdV3h9buG+07q/HnOt1T34+6vTOdlD950Gg0FjZe+NuvX7QXxSMPnvnbAQAoVKl7tH+wrhJz97y7O6BHvfpMbykUPRqqR6/PWnGD6m6bVqvNjm5u9blMc++d+fuEIKJzof3c25jobSw07h97GwEAKFJFztdn92iKXEndPfc2FogeDdujukF1t02n1WbJ/lyquZeOLp0dAjl+OHwF9OQBPQoAmK1a9ahcT213vY1FokeD9ejl1nbcoLJNk1ZLlkv1Gqrmn82PzvIbrY7zaHQ9gHlZc7pcXR4Q7WO/uLM6q3deOjqTR6hfwX21mH0Man/79QXrc6lX8A9SUqfaJzulTo8CAMquTj0qLydd6XobC0WPButRmX1R3sluc1vtrLW92rLzbmDPabJuvViUOqtLRztOFA5ahZURbCWvamL1dqqbzUPiOJN9ZIxar6Yq1utR+VxzzPL4vUc1ehQAcAvUqEdnfbJeoEfD9ehQ6UJVG4dcYyoKMt2aMiszKzBNtKO1pwxZU7ciNKMjEfs4PZpRwLMwqkefP1lYfDLWLwEAgOmoT4/O/GS9QI8W16P+CXovB+Nz6ImsHh2SjNFJ/Fi+HtUPJU8f0srTI+9Vagy7mUkbczcAAKakNj06+5P1Aj1akh5Nn/4esD46qEdlSjr7514f9Xln/AvE+igAoOzq0qMlOFkv0KPF9Wj6PHtyvv7lUdM/m5+vR9On/ifuUWfPQnH9KACg7GrSo2U4WS/Qo4X16HbTXQF1ejHrXqJc5+vd3jWn/nP1aGoFV77IDdZHZ34/kzkAzuYDAKao1D0a/T18V0Z3luJkvUCPFtejO+7fe/KXHk2DKrId5eny5CJO+9GY8wrO5aeiI0Vrmn2S56pXs2I32Uf1aLSbcYMYFWbdo8/uqxrN+G4nAACCqcj6aEXQo4X2qLcR2UZ/P9Pg3FRfKMrVpQCAKaNHQ6JH6dEyUousN/n++udPFhqNhyep7QAABEWPhkSPFtCj+sy7YV9CitDk34FicRQAMH30aEj0aAE9CgAAaoYeDYkepUcBAEBe9GhI9Cg9CgAA8qJHQ6JH6VEAAJAXPRoSPUqPAgCAvOjRkOhRehQAAORFj4ZEj9KjAAAgL3o0JHqUHgUAAHnRoyHRo/QoAADIix4NiR6lRwEAQF5V6NH+YXN5rXlw5W/X1KPzysB9ikKPhurR3s5S9HWgL4+a6qtBV0+9fabGvOPembd9Apdb2/ILTlsda6P54lP5uU735KNzYb+Uv/d057W77dfuHfeuexv32vLfjzrePtN1dbwo3vTuzsZVdDB390+8fQAAKHmP9g/WVWjunnd3s1tTxujuefTjeXvGSUqPhurR67NW3KC628K2mnTWGvKaIohD9qgkotPpUd3c6himUMDCxX7coCePZI8uPu05O0TbNfGoqEazj0nJtCgo9YtnsIuzsxJv0fvLOI4fBQDAqMj5+gE9KoJ1pWtv6a5YeVo8ejRsj+pe1N0Wug7L0qP6XVRzLx1dJo8GoBJQ96Venly5sHeQsWgXaqpZxQ7ecqa15WI/3lM8MXrl3sa9VI/qBtWBW/ACLQCgIujRkOjRYD2qTnCbIpRtGrVafOJbL6CqwjMnvrNqL+bEpXmux3+6eEr0yvrKgeRRLXlUSF9OYA41frrfo/bnUkfrPqqdPGjIefDM2z4OlYCmFGWbyvPm8aNWRCaS9VEp3aNWbo7Vo+o6AdOgfv4CABCrdo/KAG0d9uMfu7tunhaNHg3Wo7LeogaV3Wa3mjq7rQNRlWW8jJqsd4rtTiDKp/iroaPWR+NXlsQLOknqv6Dc397BO2Z1nH5xymA1W/ynxybpUZmAUYPKHvVWLr3WTEv2yYjXsXpUPhTtJns0XcAAAAhV71H5kL6ZSbLbdBbo0XA9OoRowSjsRNLFGZf05eleVtt1Vt0cHNWj3qOd1eR8evpRd6N1hDGrPkugszL6Uk5ZkOqSUGlISmYutQIAML6K96iIUXd9dL7dTR4tHD1aih61T5S7vLP2w3vU2dntUfvfCfG+elHWPqpE6nz9LDk9Gt38rsWn9ZP1UbEDPQoAmJ5q9+h5e809QX+12eL60YlysCY9mrU+6rvlPZp1vn7U9aPZYUqPAgAmVPUeXd/se1vo0YlysA49KnfI6kXPBD1a/fP12RFJjwIAZqLi5+v7h037BD3n6+nReLv/55NO9zLusk8CUd0sn/w4vEczkte74cn7UR6P8/rjmuh+puFEbjp33AuiLIvu0edPFtQnfHiSeggAcGuUukejv4fvcovT2Yf7mWrfoybsootBzY8qDfU97EkFygDVeypenkoiOpMdkvvxRWt6G5OXspZF3de361Mz99RrokTN/l7mjjDFHhVEccaXjUpJjA78e/h2evpPv8GfF+1tqBy9f+xtBwDcKhVZH60IenTqPYp6eXZ/erUNAKgMejQkepQeRR7HDxuNhY0Xqe0AgNuFHg2JHqVHkYO8GoHFUQAAPRoUPUqPAgCAvOjRkOhRehQAAORFj4ZEj9KjAAAgL3o0JHqUHgUAAHnRoyHRo/QoAADIix4NiR6lRwEAQF70aEj0KD0KAADyokdDokfpUQAAkBc9GhI9So8CAIC86NGQ6NGCe7S3s/S4udVLbQcAABVShR7tHzaX15oHV/52o7uyvDavtbupRwtFj4bqURmac3OqNV8eNefkv1dPvX2ESvdoZzX+XKd74h9zc9s7xaU8AADlUeoe7R+sq9DcPe/uDujRq81Wkqpy/5kmKT0aqkevz1pxg+pum0KrmQpUWh35RktHl94+U6SbW30u09x7Z/4+k+lt3Ns/8TcCAFA6FTlfP6hHu7tegPYPdjf7yY8Fo0fD9qhuUN1tgVtNvr5Vn5db27JKZ9Cj+nOp5g7+7vQoAKAaKt+j/vaBK6lFoEeD9agKRNOgXjsq5mS3MPB8fXSiX4fm2dZ2sufpXsazTve8d9FrtIZcQE0eitdW1QquubrAj+YhB6BYn0u9gvcWysmDhpwHz7ztI4gSbb9217f4tJfsc3W8aG08eaT32dm4Uo9e7Msf7x2bA452fu1Rxzxd8t6F9gUA3FDd1kczthSIHg3Wo3Ydym7LajVBZGt2j8oWtOpQ5WO8p3jBrKtRbTIQ7VeWfZxavxQbV7dkdJpXszN36AFo8jXN5/LfLnbDHtXGWB+92F98erwSp6rozqQ4Oytxj2rOozJhVy7cR+OcBQAgj4r3qHv96Hl7xnc10aPhenQ8w3o0lY+xs9aIq1EzXza9UQaltyYaG3oABRmrR5M1Ud/QHpUha622Gp0VZwEVAICxVL1HBZmk+v56uU//sEmPpraPry49KkSn1BUnQEf2aPYOIjHdZVrx7sPWWQcfQEHGXB9NZ6U2rEd7T3esM/U2ztoDAHKrQY86+gfrY+45DfRomXrUIa83jdtx5Pn6MD3qcA6gINPt0cFPBAAgn5r1aHdleffc31gcerS0PapWK+OazD6ZLpLRnHzPfNn0xjw96h5AMUL36MV+cj+TaFPvUQAAbqpOPSpidH2Gf+xJoEfL0qOpFVB5w5CzRdShnaSiUJ31S7G/u0Tq7a8M6dHRBzCeSe9nsu6pl/cbubfYC8N6VD49vmPJ3IBvXR4qT9mng9U/X/+ivag+wf1jayMAAI5S92j09/Bd9uWh6quboodmHKMCPVpMj8q2sy7NjFi9KG/Jdx/NaMER13cmf1JKcmI08wCcVxjrAMYwUY8KnZXkyk7nvqXoDzw5nPvlBZWw+iGZreZHqzj1n4WKpVdMnz9ZmOj4AQC3QkXWRyuCHi2mR1EZqqcfnqS2AwBgoUdDokfpUdie3W80Fp9wmSkAYDh6NCR6lB6F5fghi6MAgDHQoyHRo/QoAADIix4NiR6lRwEAQF70aEj0KD0KAADyokdDokfpUQAAkBc9GhI9So8CAIC86NGQ6FF6FAAA5EWPhkSP0qMAACAvejQkepQeBQAAedGjIdGj9CgAAMiLHg2JHi1bj/Z2lh43t/i+SgAAyqz8PdpdWV6b19rd1KPC1WZr+A7FoUdD9ajsyLk5lZIvj5pz8t+rp94+46hyj57uiU89N7d39ur6rCV/A3NLR5fePhN5+dd/8n+t/J7tmz/297n+8XeiR//key9Sj16/+vDPo6e/s/cy9ej19cvvvRPt8Oed1KMAAEjl7tH+YXN5fbNvfuwfrM+3Dvv2DtevzttrK13zb7FD8+Aqfqh49GioHjUFphq0syqzbHvHe9nTvcovfA7/CDrEVYNebm3LHm11/H0mInr09/566H+sF3u/l1Rm55sr3/kwfkhxXkGUa6o4Ra3GjTv67QAAt1Wpe9RuzWhLkqdSd9cL0PP27rn1Y8Ho0bA9qhtUr5XKZUJnn1vSo7pB1Vpp6M87KhBffu8dN0Bf7H3T3l/UqhugL//6O84a6o+/473+h3/uFy0AAELFrh/1CrV/sOvkqVoi9RK2SPRosB5VK4KmQWWb2qeqzYlsjxeselVVcjPOXAmwemp2kEuw0Qs6lwS475LVgslbCPZz9eJu/BSzumnvM/ZHMC+i2tQ5PKO3sdAQs/jkBqk6qkc73/TXOzvftE/K//g7/vl9N0D9PFXvmHFJAADg1qtUj/YPm+75en+5dNan7OnRYD0qiy1qUJl36VPV462PihZM76YCUS++qqbUbySaL65e+9+KfwwyEO1LCFIXqqYOT7ypH5QjPoJ8TfMU/+1iE/aoubIz8/rO1PKnd8o+Iy7dU/Yf/rl/yemoAgYA3FLV6VF5Lal/Lj59Qp8erUuPjjRZj0ZpKJov7rzOqmlQsTF1eYB81l60p/2smLsxQI8WTOapHaDOxaOa36N+XPo96t8gRY8CADJVpEe7u/OpGBXoUQ896rtRjzon4m3RS8V7OpzirF6P+ncs0aMAgKJUoEdFYqZvq9cye5TrR72NudCj6h/p26ccNe1R9wamzB61tmT2qL0ls0e5fhQAkFb2HhXFOeyvinZ33UevNlvcXz9RDtKj8t9nrcybh2I3OV+f8Zol61E/QEWeuheAevfLp4LVv2DU/wtQqRv2AQBQytyj8g/dp/6c07C/ADXbk/UCPVpoj9o3pKtb2jMv+rxJj8p/+/eziz2tO5aybnhy3kjegRQfj7kAIN2j43yEoW5+P5OIRedP3He+mf57+KI4k6B0z+YrznqnX5+SXajZJ+ufP1EfoPHwxN0OALhNytyj1jczWVKn40d+gVNx6NECe1RlZXJxp3MDvmzH5KGYLEjrIfkU86NKSV2NcZ76L5JVk8mjmdUbPSpf0/zo/qGAwR9hTJPcX68bNL6/PvNMuojIaAf/ZnnF+vol/+S+Zr1FqlYFc/z3j73tAIBbpSL3M1UEPVpoj6L6nt0XNfrgWWo7AOBWoUdDokfpUeRx/LDRWNh4kdoOALhd6NGQ6FF6FDmcPGBxFAAg0KMh0aP0KAAAyIseDYkepUcBAEBe9GhI9Cg9CgAA8qJHQ6JH6VEAAJAXPRoSPUqPAgCAvOjRkOhRehQAAORFj4ZEj9KjAAAgL3o0JHqUHgUAAHnRoyHRo/QoAADIix4NiR6lRwEAQF7l79HuyvLavNbuph5Vurvi0ZVuanvh6NFQPdrbWXo8N/e4udW7fnnUnJP/Xj01j561ooecp0xVZ1Uew/ZOkal9uic+5tzc3ln0keeWji69fcLobSw0Go2HJ/726+sX7UXxCF/pCQCYrnL3aP+wuby+2Tc/9g/W51uHfWuH87bq1Nbh+cE6PSrUpkdNgakGzWrB071ie1QQiVxsj+oQVw16ubUte7TV8fcJ4vjh0OKUtXr/2NsIAEBApe5RkZteZZ63kzy1iVSlR4Wa9ajuP71WKpcJkx1uT4/qBlVrpVP6yM+fLCw+GfbKJw/oUQDAVFXs+tF0oWr0qFafHlUrgqZBZZt6p6pVj5pVQ8mtVcmc8R+0g/VcKb4YwKLXZTXxdL9HzTl0w0/V6PX19uilvE8RXYqgHzrb2naLUz7LbFF7Zh2kPtXeGB6Uw9GjAIBZq1SP9g+b7vn6GD2q1adH5YpgVG+y/LxT1fraynijzDWnOMVTnHqTOwxZ3ZTx6rSgt78Jx2SLyM10O6Z78ay1vbMlDtU8UTwr2cc75owVUHlUZv+Bx0+PAgBqoDo9Kq8l3T33NkboUa1GPTqcqDe3UJ3Uyz6b31kdcv2l+4KyI/1PIYoz2ijqMOOlejst/36jjJXdmHiRQQ8Va2SPjtwBAIDJVKRH5R30A2NUoEe1W9SjXnHaPRqdK0+z1iPNkqclSUyRnv75fbVaGfWoXp3N4FdsVtdanNcZuue0PLs/1u3zahV2of3c3w4AQBAV6FHRmt5t9Wn0qEaPmn9nrY9a0qe/nfXRMXp0yFKrZUSPOrLP+BeA9VEAwKyVvUflX3Qa9GdHLfSoRo8qo06FOztruc7XZwdrhjw9miNzw+L6UQDArJW5R682W2vNgyt7I/fXD0ePJj+mb8mPz9fLR536VGfM7RaUC6h2ccrFS+eUuvVqRnrNdWiP+ndc2Xcv5TDz+5nUGf/JDgAAcOuVuUetb2ay2N1p/h6+y0vYItGjRfSoyUfBFKcsObPFbkqZjNF2wc3T5EX0Xe16Z3sf5wJTkZXmXZIOdnYQ0v3qcfrVPgAtf4wKs+7R44fy7bm0FAAwkYrcz1QR9GgRPYrARn8/08LGC2+jIVpW1OigRwEAGA89GhI9So9WkV5kvcH316sn8u32AIBJ0aMh0aP06G0ia5XFUQDA5OjRkOhRehQAAORFj4ZEj9KjAAAgL3o0JHqUHgUAAHnRoyHRo/QoAADIix4NiR6lRwEAQF70aEj0KD0KAADyokdDokfpUQAAkBc9GhI9So8CAIC86NGQ6FF6tM4u9l971PE3AgAwMXo0JHq0aj368qg5t71DQI+jt3FvZ+PK2yiI7e3Fp73U9jK5Ol68m3nwAIBSKH+PdleW1+a1djf16Kvr/mEz2qF5cOU/Wix6NFSP9naWHs/NPW5u9VQyyn+vnnr7hDC4Ry+3tsWbzi0dXUYHM9fqePtM5uRR+7W7bbXi2FkR/7hbbNVd7Mt3v7t/4m0fROx/77jnbZQm71Hz8SNjH9L4ZtejM/6vDAAVUe4ela25vtk3P/YP1udbh317h+7u/PLuefTjeXtAsxaFHg3Vo9dnrbhBO6uyRwtfxTzdixtUH4yMY2+fifSe7kR1IpNO/Hvlwt9nykQhjRl/8gindHii2GqcaCX4rwwAFVDqHhV9udL1tiR5en19tdmyf9RbkjwtHj0atkd1g+rlyb2z1D7TpXpUN6heKw29QKtLRdeJWkUrfgFv7B69Ol7MXhydnKi0Op9JL8F/ZQCogIpdP5ouVFe6UAtFjwbrUZWApkFlm8rz5uYhb7XSnFh3ezHaqItWr7A6L2KWP5N9UtR1AuY15c5Zu71oLzbELGy8SD00BnnG3NSJqhaThrpgXnvUSZ/q9W8nMufctayytHcQQXmx765EJj1q3kvvluxgiEezVvWio8o6B61fUG5PjsFLseTpFu9TmDVFLecyqvNcZdSvSP3OvU+a/GbUDtZD+vjlhxr22xvwXxkAYKtUj/YPm975ek93l/P1NelRmYBRPsoA9a7dPN3zzp6LAE2vX561tne2kpTM2qe3szSgR2XFRg/JHs1aoJ2sR+VFjaZOZKnYKSMfMvmlWkcHjbOUmPUUJ/jkE+0dVHgN6lH5qBe7sVGLo+JIsktR5O896yDlAaRrbMj6qAw+uw7lJxp0kKNZHzYmDsn6aPr/ErDeURat/dH837k8pJ1Fa5+MIxzyXxkAEKlOj8prSYeeixcxOrxWp48eDdejw43bo+6aaIYhPTpLImKirLFrT9SPSbfMRrQ3Wq+QGLA+6perSzyanZuRIT3qBWhy/ImBPSreN70om7lxPAN6dHDgZn4ub2MqQDsrFCcA5FeRHnXvW0rLuNVpFujRsvXoyNasao/6ZamJtkuW4rIb0SEXIFOLpi5xJOmMcw3pUW97nh5NPosj+4OPI6tH1cGbU+2Ss0PW0fqhn9qHHgWAm6hAj45szZnfVh+jR+nRMIrrUfGCA1cohXFep9I96pDxnRwMPQoAhSl7j45qzavN1uz/7GiMHp1Zj561Mu5/r3GPih3S3WNvdK+MHCBONB2m9kPaGA03rR4VO0//fH2K/VkyP5e3kR4FgCDK3KMZreneXy//VL57uz3319+SHpU3v8c3GJnb52fQo5PdzzTEyB7NqCW/KVOXNqotTi1ZiSbeMZVrmUGWNnC3yXo0XZDijbIu9xS7jbrqQEr3aPqtvd9haodU5dOjABBEmXvU+mYmSxKg1jczWejRiXKwIj2qTtDbf7DJ/Ghuw4/+wJPDukE++s4nj7fmOtpUelRWl3U5o/lRVY4MSiu89I+RjKqzXkpyik3ebCQ2mkTz3lTt48WZR7SaeVlHVGPJsZktphoFcxiygKN9Yl7MeftkxKgwSY9aLy6lP29y2JJzeKlPZH6lwpDfGwAgQ0XuZ6oIerS4HsWUDViMrC5WLgGgvOjRkOhRehQlNfRPOwEAZoseDYkepUdRGu7peBZHAaDE6NGQ6FF6FAAA5EWPhkSP0qMAACAvejQkepQeBQAAedGjIdGj9CgAAMiLHg2JHgUAAMiLHg2JHgUAAMiLHg2JHgUAAMiLHg2JHgUAAMiLHg2JHgUAAMiLHg2JHgUAAMir/D3aXVlem9fa3dSjr677h83hOxSIHk08f7LQaDTuH/vbAQAAXOXuUdma65t982P/YH2+ddi3dpBblnfPox/P2zNOUnrU9aK92Hh44m0EAABwlLpHRV+udL0tSZ5mudpsJXlaPHrU8+w+PQoAAEao2PWj6UJ10aP0KAAAqJhK9Wj/sOmer/fI0/ecr6dHAQBApVSnR+W1pAPWPuNbmrifqWQ92ttYWNh44W0EAACwVaRHu7v2fUuDpG94Khg9miJvaWosPun52wEAAIwK9GiuyhQ7D73AdLroUQ/rowAAYKSy92jeP+EkerR5cOVtLAw96uH6UQAAMFKZe/Rqs7XmxaV7f72/g1xJHeO0/vTQo56hPapO5fM38wEAuPXK3KPWNzNZUn+R1Hp0phePCvSoZ1iP6i9wajx45m0HAAC3TEXuZ6oIetT1or240H7ubYycPBA1ytl8AABAj4ZEjyZGfX/9s/vcdw8AACR6NCR6dGzHD1kcBQAACj0aEj0KAACQFz0aEj0KAACQFz0aEj0KAACQFz0aEj0KAACQFz0aEj0KAACQFz0aEj0KAACQ10169Af7fMFjNnoUAAAgr1w9+pt//vwH+8f/P+Eq34aa+ddQAAAAAElFTkSuQmCC;" vertex="1" parent="1">
          <mxGeometry x="100" y="90" width="901" height="629" as="geometry" />
        </mxCell>
        <mxCell id="oCfir9i1Kfj-CyN_nqJA-2" value="" style="rounded=0;whiteSpace=wrap;html=1;fillColor=none;strokeWidth=3;dashed=1;strokeColor=#1890FF;" vertex="1" parent="1">
          <mxGeometry x="100" y="90" width="900" height="630" as="geometry" />
        </mxCell>
        <mxCell id="oCfir9i1Kfj-CyN_nqJA-3" value="" style="rounded=0;whiteSpace=wrap;html=1;fillColor=#dae8fc;strokeColor=#6c8ebf;opacity=20;" vertex="1" parent="1">
          <mxGeometry x="100" y="90" width="900" height="70" as="geometry" />
        </mxCell>
        <mxCell id="oCfir9i1Kfj-CyN_nqJA-4" value="" style="rounded=0;whiteSpace=wrap;html=1;fillColor=#fff2cc;strokeColor=none;opacity=20;" vertex="1" parent="1">
          <mxGeometry x="100" y="160" width="900" height="560" as="geometry" />
        </mxCell>
        <mxCell id="oCfir9i1Kfj-CyN_nqJA-5" value="1" style="ellipse;whiteSpace=wrap;html=1;aspect=fixed;strokeColor=none;fillColor=#FF3333;fontColor=#FFFFFF;" vertex="1" parent="1">
          <mxGeometry x="770" y="106.25" width="37.5" height="37.5" as="geometry" />
        </mxCell>
        <mxCell id="oCfir9i1Kfj-CyN_nqJA-7" value="2" style="ellipse;whiteSpace=wrap;html=1;aspect=fixed;strokeColor=none;fillColor=#FF3333;fontColor=#FFFFFF;" vertex="1" parent="1">
          <mxGeometry x="510" y="190" width="37.5" height="37.5" as="geometry" />
        </mxCell>
      </root>
    </mxGraphModel>
  </diagram>
</mxfile>
